<svg width="18" height="18" viewBox="0 0 18 18" fill="none" xmlns="http://www.w3.org/2000/svg">
<path d="M0.984377 0.986328C0.719502 0.990468 0.46709 1.09953 0.282539 1.28957C0.0979875 1.47962 -0.00362497 1.73512 2.32814e-06 2V16C2.32814e-06 17.0931 0.90694 18 2 18H16C16.1325 18.0019 16.2641 17.9774 16.387 17.928C16.51 17.8786 16.6219 17.8052 16.7163 17.7122C16.8107 17.6191 16.8856 17.5082 16.9368 17.386C16.9879 17.2637 17.0142 17.1325 17.0142 17C17.0142 16.8675 16.9879 16.7363 16.9368 16.614C16.8856 16.4918 16.8107 16.3809 16.7163 16.2878C16.6219 16.1948 16.51 16.1214 16.387 16.072C16.2641 16.0226 16.1325 15.9981 16 16H2V2C2.00183 1.86621 1.9768 1.73341 1.92639 1.60947C1.87597 1.48553 1.8012 1.37297 1.70649 1.27845C1.61179 1.18393 1.49908 1.10937 1.37504 1.05919C1.25101 1.00902 1.11816 0.984238 0.984377 0.986328ZM15.9805 3.99023C15.7207 3.99798 15.4741 4.10655 15.293 4.29297L12 7.58594L9.70703 5.29297C9.51949 5.1055 9.26517 5.00019 9 5.00019C8.73483 5.00019 8.48051 5.1055 8.29297 5.29297L3.29297 10.293C3.197 10.3851 3.12037 10.4955 3.06759 10.6176C3.0148 10.7397 2.98692 10.8712 2.98557 11.0042C2.98421 11.1373 3.00942 11.2692 3.05971 11.3924C3.11 11.5156 3.18436 11.6275 3.27844 11.7216C3.37252 11.8156 3.48442 11.89 3.6076 11.9403C3.73077 11.9906 3.86275 12.0158 3.99579 12.0144C4.12883 12.0131 4.26026 11.9852 4.38239 11.9324C4.50452 11.8796 4.61489 11.803 4.70703 11.707L9 7.41406L11.293 9.70703C11.4805 9.8945 11.7348 9.99981 12 9.99981C12.2652 9.99981 12.5195 9.8945 12.707 9.70703L16.707 5.70703C16.8515 5.56657 16.9502 5.38573 16.9902 5.18821C17.0302 4.99069 17.0095 4.7857 16.931 4.60012C16.8524 4.41453 16.7197 4.257 16.55 4.14817C16.3804 4.03935 16.1819 3.98429 15.9805 3.99023Z" fill="#3EC0AD"/>
</svg>
